<svg width="1512" height="809" viewBox="0 0 1512 809" fill="none" xmlns="http://www.w3.org/2000/svg">
<path d="M1512 0H0V807H1512V0Z" fill="#315EFF"/>
<path d="M0 121.56H756H1512V808.68H756H0V121.56Z" fill="#3647B6"/>
<path d="M0 177H756H1512V808.68H756H0V177Z" fill="#3544AB"/>
<path d="M0 232.44H756H1512V808.68H756H0V232.44Z" fill="#3440A0"/>
<path d="M0 289.56H756H1512V808.68H756H0V289.56Z" fill="#333D95"/>
<path d="M0 345H756H1512V808.68H756H0V345Z" fill="#323A8B"/>
<path d="M0 400.44H756H1512V808.68H756H0V400.44Z" fill="#313780"/>
<path d="M0 455.88H756H1512V808.68H756H0V455.88Z" fill="#2F3376"/>
<path d="M0 513H756H1512V808.68H756H0V513Z" fill="#2D306B"/>
<path d="M0 568.44H756H1512V808.68H756H0V568.44Z" fill="#2B2D61"/>
<path d="M0 623.88H756H1512V808.68H756H0V623.88Z" fill="#292957"/>
<path d="M0 679.32H756H1512V808.68H756H0V679.32Z" fill="#27264E"/>
<path d="M0 734.76H756H1512V808.68H756H0V734.76Z" fill="#242344"/>
</svg>
