<svg id="visual" viewBox="0 0 900 600" width="900" height="600" xmlns="http://www.w3.org/2000/svg" xmlns:xlink="http://www.w3.org/1999/xlink" version="1.1"><path d="M0 175L50 176C100 177 200 179 300 178C400 177 500 173 600 174C700 175 800 181 850 184L900 187L900 0L850 0C800 0 700 0 600 0C500 0 400 0 300 0C200 0 100 0 50 0L0 0Z" fill="#002180"></path><path d="M0 253L50 256C100 259 200 265 300 265C400 265 500 259 600 258C700 257 800 261 850 263L900 265L900 185L850 182C800 179 700 173 600 172C500 171 400 175 300 176C200 177 100 175 50 174L0 173Z" fill="#002396"></path><path d="M0 355L50 357C100 359 200 363 300 363C400 363 500 359 600 360C700 361 800 367 850 370L900 373L900 263L850 261C800 259 700 255 600 256C500 257 400 263 300 263C200 263 100 257 50 254L0 251Z" fill="#0025ac"></path><path d="M0 535L50 535C100 535 200 535 300 534C400 533 500 531 600 531C700 531 800 533 850 534L900 535L900 371L850 368C800 365 700 359 600 358C500 357 400 361 300 361C200 361 100 357 50 355L0 353Z" fill="#273cbb"></path><path d="M0 601L50 601C100 601 200 601 300 601C400 601 500 601 600 601C700 601 800 601 850 601L900 601L900 533L850 532C800 531 700 529 600 529C500 529 400 531 300 532C200 533 100 533 50 533L0 533Z" fill="#3f52ca"></path></svg>