<svg width="1512" height="250" viewBox="0 0 1512 250" fill="none" xmlns="http://www.w3.org/2000/svg">
<path d="M1512 0H0V249.481H1512V0Z" fill="#315EFF"/>
<path d="M0 37.5801H756H1512V250H756H0V37.5801Z" fill="#3647B6"/>
<path d="M0 54.7188H756H1512V250H756H0V54.7188Z" fill="#3544AB"/>
<path d="M0 71.8579H756H1512V250H756H0V71.8579Z" fill="#3440A0"/>
<path d="M0 89.5166H756H1512V250H756H0V89.5166Z" fill="#333D95"/>
<path d="M0 106.655H756H1512V250H756H0V106.655Z" fill="#323A8B"/>
<path d="M0 123.794H756H1512V250H756H0V123.794Z" fill="#313780"/>
<path d="M0 140.934H756H1512V250H756H0V140.934Z" fill="#2F3376"/>
<path d="M0 158.592H756H1512V250H756H0V158.592Z" fill="#2D306B"/>
<path d="M0 175.73H756H1512V250H756H0V175.73Z" fill="#2B2D61"/>
<path d="M0 192.87H756H1512V250H756H0V192.87Z" fill="#292957"/>
<path d="M0 210.009H756H1512V250H756H0V210.009Z" fill="#27264E"/>
<path d="M0 227.148H756H1512V250H756H0V227.148Z" fill="#242344"/>
</svg>
