<svg width="1512" height="1352" viewBox="0 0 1512 1352" fill="none" xmlns="http://www.w3.org/2000/svg">
<path d="M0 96.7321L1512 312.692V0H0V96.7321Z" fill="#242344"/>
<path d="M0 177.717L1512 420.672V308.193L0 92.2329V177.717Z" fill="#282853"/>
<path d="M0 191.215L1512 434.17V416.173L0 173.218V191.215Z" fill="#2B2D63"/>
<path d="M0 245.205L1512 488.16V429.67L0 186.715V245.205Z" fill="#2E3273"/>
<path d="M0 690.623L1512 596.14V483.661L0 240.706V690.623Z" fill="#313783"/>
<path d="M0 771.607L1512 650.13V591.641L0 686.123V771.607Z" fill="#333C94"/>
<path d="M0 879.588L1512 866.09V645.631L0 767.108V879.588Z" fill="#3542A5"/>
<path d="M0 1028.06L1512 960.573V861.591L0 875.088V1028.06Z" fill="#3647B6"/>
<path d="M0 1163.04L1512 1014.56V956.073L0 1023.56V1163.04Z" fill="#364DC8"/>
<path d="M0 1230.52L1512 1217.03V1010.06L0 1158.54V1230.52Z" fill="#3552DA"/>
<path d="M0 1257.52L1512 1271.02V1212.53L0 1226.02V1257.52Z" fill="#3458EC"/>
<path d="M0 1352H1512V1266.52L0 1253.02V1352Z" fill="#315EFF"/>
</svg>
