<svg width="1512" height="1010" viewBox="0 0 1512 1010" fill="none" xmlns="http://www.w3.org/2000/svg">
<path d="M0 72.24L1512 233.52V0H0V72.24Z" fill="#242344"/>
<path d="M0 132.72L1512 314.16V230.16L0 68.8799V132.72Z" fill="#282853"/>
<path d="M0 142.8L1512 324.24V310.8L0 129.36V142.8Z" fill="#2B2D63"/>
<path d="M0 183.12L1512 364.56V320.88L0 139.44V183.12Z" fill="#2E3273"/>
<path d="M0 515.76L1512 445.2V361.2L0 179.76V515.76Z" fill="#313783"/>
<path d="M0 576.24L1512 485.52V441.84L0 512.4V576.24Z" fill="#333C94"/>
<path d="M0 656.88L1512 646.8V482.16L0 572.88V656.88Z" fill="#3542A5"/>
<path d="M0 767.76L1512 717.36V643.44L0 653.52V767.76Z" fill="#3647B6"/>
<path d="M0 868.56L1512 757.68V714L0 764.4V868.56Z" fill="#364DC8"/>
<path d="M0 918.96L1512 908.88V754.32L0 865.2V918.96Z" fill="#3552DA"/>
<path d="M0 939.12L1512 949.2V905.52L0 915.6V939.12Z" fill="#3458EC"/>
<path d="M0 1009.68H1512V945.84L0 935.76V1009.68Z" fill="#315EFF"/>
</svg>
