<svg width="21" height="20" viewBox="0 0 21 20" fill="none" xmlns="http://www.w3.org/2000/svg">
<g clip-path="url(#clip0_6_191)">
<path d="M15.579 0.774979L5.39785 10.935C5.00899 11.3209 4.70072 11.78 4.49087 12.2857C4.28102 12.7913 4.17376 13.3335 4.17531 13.8808V15C4.17531 15.221 4.26329 15.433 4.4199 15.5892C4.5765 15.7455 4.7889 15.8333 5.01038 15.8333H6.13188C6.68032 15.8349 7.22362 15.7278 7.73033 15.5184C8.23704 15.309 8.69709 15.0014 9.08385 14.6133L19.265 4.45331C19.753 3.96512 20.0271 3.30371 20.0271 2.61415C20.0271 1.92458 19.753 1.26317 19.265 0.774979C18.7687 0.301557 18.1086 0.0373535 17.422 0.0373535C16.7354 0.0373535 16.0753 0.301557 15.579 0.774979ZM18.0842 3.27498L7.90306 13.435C7.43218 13.902 6.79576 14.1649 6.13188 14.1666H5.84545V13.8808C5.84719 13.2183 6.11064 12.5832 6.57864 12.1133L16.7598 1.95331C16.9382 1.78327 17.1753 1.68839 17.422 1.68839C17.6687 1.68839 17.9059 1.78327 18.0842 1.95331C18.2595 2.12874 18.358 2.36639 18.358 2.61415C18.358 2.8619 18.2595 3.09955 18.0842 3.27498Z" fill="white"/>
<path d="M19.2066 7.4825C18.9851 7.4825 18.7727 7.5703 18.6161 7.72658C18.4595 7.88286 18.3715 8.09482 18.3715 8.31583V12.5H15.0312C14.3668 12.5 13.7296 12.7634 13.2598 13.2322C12.79 13.7011 12.526 14.337 12.526 15V18.3333H4.17535C3.51092 18.3333 2.87371 18.0699 2.4039 17.6011C1.93408 17.1323 1.67014 16.4964 1.67014 15.8333V4.16667C1.67014 3.50363 1.93408 2.86774 2.4039 2.3989C2.87371 1.93006 3.51092 1.66667 4.17535 1.66667H11.726C11.9475 1.66667 12.1599 1.57887 12.3165 1.42259C12.4731 1.26631 12.5611 1.05435 12.5611 0.833333C12.5611 0.61232 12.4731 0.400358 12.3165 0.244078C12.1599 0.0877974 11.9475 0 11.726 0L4.17535 0C3.06838 0.00132321 2.00714 0.440735 1.2244 1.22185C0.441653 2.00296 0.00132597 3.062 0 4.16667L0 15.8333C0.00132597 16.938 0.441653 17.997 1.2244 18.7782C2.00714 19.5593 3.06838 19.9987 4.17535 20H13.6475C14.1961 20.0016 14.7395 19.8945 15.2464 19.6851C15.7532 19.4757 16.2134 19.1681 16.6003 18.78L18.8183 16.565C19.2072 16.1791 19.5156 15.72 19.7256 15.2143C19.9356 14.7087 20.043 14.1665 20.0417 13.6192V8.31583C20.0417 8.09482 19.9537 7.88286 19.7971 7.72658C19.6405 7.5703 19.4281 7.4825 19.2066 7.4825ZM15.4196 17.6017C15.0839 17.9358 14.6594 18.1672 14.1962 18.2683V15C14.1962 14.779 14.2842 14.567 14.4408 14.4107C14.5974 14.2545 14.8098 14.1667 15.0312 14.1667H18.3089C18.2056 14.6279 17.974 15.0508 17.6408 15.3867L15.4196 17.6017Z" fill="white"/>
</g>
<defs>
<clipPath id="clip0_6_191">
<rect width="20.0417" height="20" fill="white"/>
</clipPath>
</defs>
</svg>
