<svg width="665" height="409" viewBox="0 0 665 409" fill="none" xmlns="http://www.w3.org/2000/svg">
<g clip-path="url(#clip0_47_30)">
<path d="M556.537 334.631H108.464C98.8811 334.631 91.0848 326.835 91.0848 317.252V263.323H573.916V317.252C573.916 326.835 566.12 334.631 556.537 334.631Z" fill="#E6E6E6"/>
<path d="M390.491 325.61H276.227V407.227H390.491V325.61Z" fill="#E6E6E6"/>
<path d="M397.364 396.917H269.354V407.227H397.364V396.917Z" fill="#E6E6E6"/>
<path d="M574 286.242H91.0848V11.7866C91.0848 5.20355 96.4407 -0.152405 103.024 -0.152405H562.061C568.644 -0.152405 574 5.20355 574 11.7866V286.242Z" fill="#3F3D56"/>
<path d="M333.359 9.87999C335.257 9.87999 336.796 8.34141 336.796 6.44347C336.796 4.54554 335.257 3.00696 333.359 3.00696C331.461 3.00696 329.923 4.54554 329.923 6.44347C329.923 8.34141 331.461 9.87999 333.359 9.87999Z" fill="white"/>
<path d="M561.887 12.4573H102.253V271.055H561.887V12.4573Z" fill="white"/>
<path d="M508.094 207.832C529.737 207.832 547.282 190.287 547.282 168.644C547.282 147.001 529.737 129.455 508.094 129.455C486.451 129.455 468.905 147.001 468.905 168.644C468.905 190.287 486.451 207.832 508.094 207.832Z" fill="#6C63FF"/>
<path d="M112.505 162.945L107.554 180.275L127.36 181.513L126.122 161.088L112.505 162.945Z" fill="#FFB6B6"/>
<path d="M194.79 233.692C199.49 235.297 204.128 234.172 205.149 231.181C206.169 228.189 203.187 224.465 198.485 222.86C196.615 222.193 194.613 221.984 192.646 222.25L172.646 215.702L169.773 225.153L189.795 230.605C191.19 232.018 192.902 233.077 194.79 233.692Z" fill="#FFB6B6"/>
<path d="M128.422 176.432C128.422 176.432 116.023 191.347 123.196 197.519C130.369 203.69 162.399 226.536 162.399 226.536L174.886 228.48L178.08 216.41L149.884 195.516L128.422 176.432Z" fill="#6C63FF"/>
<path d="M161.272 335.215L168.162 360.749L179.106 358.723L176.674 332.378L161.272 335.215Z" fill="#FFB6B6"/>
<path d="M169.784 359.128L165.731 359.939L162.488 370.882C162.488 370.882 167.757 372.909 167.757 376.962C167.757 381.015 169.784 383.852 177.89 383.447C185.996 383.042 186.807 383.447 186.807 380.204C186.807 376.962 180.727 359.939 180.727 359.939C180.727 359.939 181.132 353.049 176.269 353.454C171.405 353.859 169.784 359.128 169.784 359.128Z" fill="#2F2E41"/>
<path d="M124.22 334.818L124.691 361.261L135.798 361.959L139.85 335.813L124.22 334.818Z" fill="#FFB6B6"/>
<path d="M126.658 360.083L122.529 359.883L116.721 369.709C116.721 369.709 121.339 372.957 120.353 376.888C119.367 380.819 120.642 384.064 128.603 385.643C136.564 387.223 137.252 387.813 138.041 384.668C138.83 381.523 137.075 363.532 137.075 363.532C137.075 363.532 139.144 356.948 134.328 356.158C129.512 355.367 126.658 360.083 126.658 360.083Z" fill="#2F2E41"/>
<path d="M128.847 176.739L106.961 175.118L102.097 181.198C102.097 181.198 99.6653 222.134 101.286 226.187C102.908 230.24 101.692 253.343 101.692 253.343L156.866 249.492L144.655 220.107L145.06 203.084L134.117 182.414L128.847 176.739Z" fill="#6C63FF"/>
<path d="M104.124 244.831C104.124 244.831 95.2068 257.801 98.4493 264.691C101.692 271.582 123.686 311.589 123.686 311.589L120.849 348.877L140.303 347.256L143.546 307.13L130.063 274.419L132.495 270.771L152.761 295.495L160.056 338.458L179.511 336.026L168.973 273.203L156.657 248.989L104.124 244.831Z" fill="#2F2E41"/>
<path d="M102.219 151.918C106.369 151.918 109.733 148.554 109.733 144.404C109.733 140.254 106.369 136.89 102.219 136.89C98.0685 136.89 94.7043 140.254 94.7043 144.404C94.7043 148.554 98.0685 151.918 102.219 151.918Z" fill="#2F2E41"/>
<path d="M119.572 172.261C128.61 172.261 135.936 164.935 135.936 155.897C135.936 146.859 128.61 139.533 119.572 139.533C110.534 139.533 103.208 146.859 103.208 155.897C103.208 164.935 110.534 172.261 119.572 172.261Z" fill="#FFB6B6"/>
<path d="M114.383 173.837C112.644 174.759 107.75 171.376 105.999 166.844C104.873 163.928 102.134 164.413 100.386 160.777C99.3678 158.658 102.409 156.585 101.907 154.753C100.998 151.434 102.138 148.464 102.283 148.1C103.536 144.959 105.383 145.032 106.872 141.377C107.769 139.176 107.194 138.918 107.948 137.792C110.123 134.543 116.435 134.42 120.886 135.956C122.427 136.488 126.138 133.639 129.15 135.703C132.699 138.135 135.059 145.145 134.516 146.429C134.186 147.21 132.349 146.415 128.528 147.015C124.99 147.571 129.659 150.214 125.678 151.115C120.97 152.181 119.551 151.209 118.247 152.698C116.868 154.273 116.613 157.459 117.871 159.351C118.496 160.29 119.301 160.621 119.2 161.274C119.016 162.467 117.956 161.819 117.609 163.084C117.205 164.556 120.558 166.486 120.267 166.931C120.208 167.02 119.957 167.118 116.682 165.856C115.375 165.352 114.871 164.916 114.724 165.077C114.486 165.338 113.311 167.951 114.647 169.063C116.726 170.793 115.285 171.48 116.232 172.834C117.21 174.231 115.489 173.252 114.383 173.837Z" fill="#2F2E41"/>
<path d="M118.215 268.388C120.827 272.612 125.123 274.689 127.811 273.027C130.5 271.364 130.561 266.593 127.948 262.367C126.927 260.665 125.514 259.232 123.826 258.188L112.534 240.428L104.313 245.905L116.317 262.831C116.497 264.808 117.148 266.714 118.215 268.388Z" fill="#FFB6B6"/>
<path d="M103.313 182.008C103.313 182.008 84.2635 185.656 85.8847 194.978C87.5059 204.3 97.7394 242.289 97.7394 242.289L106.15 251.721L116.283 244.426L107.771 210.38L103.313 182.008Z" fill="#6C63FF"/>
<path d="M553.258 189.793C552.508 188.53 549.268 189.883 548.672 188.736C548.078 187.594 551.089 185.854 552.81 181.878C553.12 181.161 555.075 176.643 553.627 175.248C550.884 172.606 538.331 183.511 533.938 179.942C532.974 179.159 532.301 177.596 529.383 175.057C528.222 174.048 527.52 173.592 526.841 173.761C525.877 174.002 525.801 175.292 524.767 177.828C523.217 181.632 522.3 181.403 521.397 184.438C520.727 186.691 520.88 188 520.091 188.256C518.975 188.617 517.947 186.227 516.532 186.441C515.088 186.659 514.215 189.442 513.94 191.525C513.422 195.434 514.858 198.014 515.654 200.727C516.519 203.674 517.032 208.157 515.035 214.504L495.269 270.194C499.633 258.766 512.268 227.441 517.577 215.8C519.109 212.439 520.802 209.031 524.277 207.686C527.622 206.39 532.216 207.164 538.074 205.753C538.758 205.588 540.656 205.105 540.895 203.988C541.093 203.065 539.976 202.55 540.148 201.685C540.378 200.526 542.574 200.511 545.272 199.174C547.175 198.23 548.36 197.108 549.379 196.143C549.687 195.852 554.255 191.475 553.258 189.793Z" fill="#E6E6E6"/>
<path d="M475.493 219.111C474.657 219.114 474.386 221.095 473.651 221.057C472.919 221.018 472.934 219.038 471.479 217.047C471.216 216.688 469.563 214.425 468.461 214.733C466.373 215.317 468.103 224.624 465.084 225.751C464.422 225.998 463.46 225.877 461.372 226.577C460.541 226.855 460.115 227.068 460.002 227.451C459.842 227.993 460.454 228.403 461.4 229.642C462.82 231.5 462.443 231.884 463.672 233.203C464.584 234.182 465.271 234.485 465.169 234.946C465.024 235.598 463.554 235.413 463.251 236.169C462.942 236.94 464.056 238.172 464.999 238.908C466.768 240.29 468.448 240.33 470.009 240.722C471.706 241.148 474.054 242.189 476.593 245.001L498.223 270.77C493.873 265.331 482.144 250.092 477.962 244.127C476.755 242.405 475.57 240.591 475.913 238.497C476.242 236.482 477.947 234.45 478.945 231.168C479.061 230.785 479.372 229.714 478.893 229.274C478.497 228.911 477.922 229.31 477.547 228.977C477.044 228.529 477.671 227.447 477.793 225.737C477.879 224.531 477.67 223.625 477.491 222.846C477.437 222.612 476.606 219.107 475.493 219.111Z" fill="#E6E6E6"/>
<path d="M492.173 222.855L491.67 218.358L491.9 218.018C492.965 216.441 493.508 214.902 493.514 213.44C493.515 213.208 493.504 212.976 493.493 212.739C493.45 211.801 493.396 210.635 494.004 209.276C494.345 208.518 495.302 206.764 496.742 206.981C497.129 207.035 497.423 207.213 497.645 207.421C497.678 207.369 497.711 207.317 497.747 207.261C498.195 206.577 498.551 206.284 498.892 206.001C499.155 205.784 499.427 205.561 499.852 205.031C500.039 204.799 500.184 204.594 500.307 204.423C500.679 203.904 501.166 203.285 502.024 203.296C502.94 203.339 503.42 204.097 503.738 204.599C504.306 205.493 504.563 206.138 504.733 206.566C504.795 206.722 504.866 206.898 504.902 206.952C505.197 207.387 507.597 206.981 508.502 206.833C510.533 206.494 512.291 206.201 513.015 207.482C513.534 208.399 513.148 209.61 511.835 211.18C511.425 211.669 510.99 212.04 510.604 212.331C510.924 212.522 511.21 212.815 511.327 213.275C511.6 214.365 510.663 215.458 508.543 216.526C508.016 216.793 507.307 217.149 506.314 217.321C505.846 217.401 505.425 217.42 505.064 217.431C505.057 217.64 505.008 217.866 504.881 218.098C504.509 218.782 503.733 219.108 502.565 219.029C501.28 218.962 500.221 218.717 499.288 218.502C498.472 218.315 497.77 218.157 497.218 218.193C496.196 218.276 495.407 219.095 494.483 220.156L492.173 222.855Z" fill="#E6E6E6"/>
<path d="M494.51 196.081L490.288 197.709L489.9 197.573C488.105 196.943 486.478 196.808 485.063 197.172C484.838 197.23 484.616 197.3 484.39 197.37C483.494 197.65 482.38 197.998 480.911 197.755C480.091 197.618 478.151 197.136 477.996 195.689C477.95 195.3 478.048 194.971 478.193 194.703C478.135 194.685 478.076 194.666 478.012 194.645C477.237 194.385 476.863 194.116 476.503 193.857C476.227 193.658 475.941 193.452 475.321 193.175C475.049 193.053 474.814 192.964 474.617 192.889C474.021 192.66 473.299 192.347 473.092 191.514C472.902 190.617 473.513 189.961 473.917 189.526C474.639 188.75 475.197 188.337 475.568 188.064C475.703 187.964 475.856 187.851 475.899 187.803C476.244 187.407 475.242 185.188 474.87 184.351C474.027 182.472 473.298 180.846 474.354 179.821C475.108 179.086 476.378 179.152 478.23 180.024C478.806 180.296 479.276 180.623 479.655 180.923C479.759 180.565 479.97 180.213 480.385 179.984C481.37 179.443 482.664 180.072 484.236 181.852C484.628 182.294 485.152 182.889 485.57 183.807C485.766 184.239 485.892 184.642 485.994 184.987C486.197 184.942 486.428 184.932 486.685 184.996C487.441 185.183 487.953 185.85 488.174 187C488.435 188.26 488.466 189.346 488.495 190.304C488.521 191.14 488.546 191.859 488.721 192.384C489.06 193.352 490.052 193.907 491.314 194.532L494.51 196.081Z" fill="#E6E6E6"/>
<path d="M492.173 182.833L491.67 178.337L491.9 177.996C492.965 176.419 493.508 174.88 493.514 173.418C493.515 173.186 493.504 172.954 493.493 172.717C493.45 171.779 493.396 170.613 494.004 169.254C494.345 168.496 495.302 166.742 496.742 166.959C497.129 167.013 497.423 167.191 497.645 167.4C497.678 167.347 497.711 167.295 497.747 167.239C498.195 166.555 498.551 166.262 498.892 165.98C499.155 165.762 499.427 165.539 499.852 165.009C500.039 164.777 500.184 164.573 500.307 164.401C500.679 163.882 501.166 163.263 502.024 163.274C502.94 163.317 503.42 164.075 503.738 164.577C504.306 165.471 504.563 166.116 504.733 166.544C504.795 166.7 504.866 166.876 504.902 166.931C505.197 167.365 507.597 166.959 508.502 166.811C510.533 166.472 512.291 166.179 513.015 167.46C513.534 168.377 513.148 169.588 511.835 171.158C511.425 171.647 510.99 172.018 510.604 172.309C510.924 172.5 511.21 172.793 511.327 173.253C511.6 174.343 510.663 175.436 508.543 176.504C508.016 176.771 507.307 177.127 506.314 177.299C505.846 177.379 505.425 177.399 505.064 177.409C505.057 177.618 505.008 177.844 504.881 178.076C504.509 178.76 503.733 179.086 502.565 179.008C501.28 178.94 500.221 178.695 499.288 178.48C498.472 178.293 497.77 178.135 497.218 178.172C496.196 178.254 495.407 179.073 494.483 180.134L492.173 182.833Z" fill="#E6E6E6"/>
<path d="M496.774 270.121L495.832 269.53L494.733 269.656C494.716 269.554 494.656 269.319 494.566 268.952C494.074 266.942 492.575 260.823 491.324 251.187C490.451 244.46 489.957 237.544 489.855 230.629C489.753 223.702 490.081 218.458 490.344 214.244C490.543 211.065 490.784 208.038 491.02 205.089C491.65 197.212 492.244 189.771 491.802 181.533C491.704 179.694 491.499 175.866 489.263 171.792C487.965 169.43 486.178 167.332 483.95 165.56L485.336 163.819C487.795 165.778 489.772 168.101 491.212 170.724C493.692 175.24 493.916 179.411 494.023 181.415C494.473 189.799 493.872 197.312 493.236 205.265C493.002 208.203 492.761 211.217 492.563 214.383C492.302 218.558 491.978 223.756 492.079 230.594C492.179 237.427 492.667 244.258 493.528 250.9C494.764 260.415 496.241 266.442 496.727 268.423C496.985 269.48 497.039 269.701 496.774 270.121Z" fill="#E6E6E6"/>
<path d="M479.873 169.093C479.782 169.093 479.689 169.091 479.596 169.085C477.703 168.983 475.949 167.849 474.384 165.717C473.65 164.714 473.274 163.569 472.525 161.287C472.409 160.936 471.844 159.151 471.501 156.695C471.276 155.09 471.305 154.419 471.623 153.827C471.976 153.167 472.547 152.706 473.189 152.396C473.161 152.183 473.184 151.964 473.276 151.74C473.655 150.813 474.663 150.934 475.208 150.993C475.483 151.028 475.828 151.073 476.199 151.054C476.783 151.026 477.097 150.852 477.572 150.591C478.027 150.342 478.593 150.031 479.432 149.86C481.087 149.514 482.473 149.983 482.93 150.138C485.335 150.939 486.52 152.808 487.893 154.973C488.166 155.407 489.105 156.988 489.725 159.155C490.172 160.718 490.109 161.413 489.975 161.93C489.701 162.992 489.055 163.6 487.415 164.942C485.702 166.347 484.842 167.05 484.104 167.478C482.385 168.47 481.306 169.093 479.873 169.093Z" fill="#E6E6E6"/>
<path d="M381.783 230.85H207.323C200.3 230.85 194.586 225.136 194.586 218.113V86.1923C194.586 79.1696 200.3 73.4554 207.323 73.4554H381.783C388.806 73.4554 394.52 79.1696 394.52 86.1923V218.113C394.52 225.136 388.806 230.85 381.783 230.85Z" fill="white"/>
<path d="M381.783 230.85H207.323C200.3 230.85 194.586 225.136 194.586 218.113V86.1923C194.586 79.1696 200.3 73.4554 207.323 73.4554H381.783C388.806 73.4554 394.52 79.1696 394.52 86.1923V218.113C394.52 225.136 388.806 230.85 381.783 230.85ZM207.323 75.5824C201.473 75.5824 196.713 80.3421 196.713 86.1923V218.113C196.713 223.963 201.473 228.723 207.323 228.723H381.783C387.633 228.723 392.393 223.963 392.393 218.113V86.1923C392.393 80.3421 387.633 75.5824 381.783 75.5824H207.323Z" fill="#3F3D56"/>
<path d="M362.616 89.4076C364.378 89.4076 365.806 87.9792 365.806 86.2172C365.806 84.4551 364.378 83.0267 362.616 83.0267C360.853 83.0267 359.425 84.4551 359.425 86.2172C359.425 87.9792 360.853 89.4076 362.616 89.4076Z" fill="#3F3D56"/>
<path d="M371.123 89.4076C372.885 89.4076 374.314 87.9792 374.314 86.2172C374.314 84.4551 372.885 83.0267 371.123 83.0267C369.361 83.0267 367.933 84.4551 367.933 86.2172C367.933 87.9792 369.361 89.4076 371.123 89.4076Z" fill="#3F3D56"/>
<path d="M379.631 89.4076C381.393 89.4076 382.822 87.9792 382.822 86.2172C382.822 84.4551 381.393 83.0267 379.631 83.0267C377.869 83.0267 376.441 84.4551 376.441 86.2172C376.441 87.9792 377.869 89.4076 379.631 89.4076Z" fill="#3F3D56"/>
<path d="M212.665 137.796C211.786 137.796 211.07 138.511 211.07 139.391C211.07 139.82 211.236 140.217 211.536 140.51C211.84 140.82 212.237 140.986 212.665 140.986H377.504C378.384 140.986 379.099 140.271 379.099 139.391C379.099 138.962 378.934 138.565 378.633 138.273C378.33 137.962 377.933 137.796 377.504 137.796H212.665Z" fill="#E6E6E6"/>
<path d="M347.727 137.264V141.518H212.665C212.08 141.518 211.549 141.284 211.166 140.891C210.772 140.508 210.538 139.976 210.538 139.391C210.538 138.221 211.495 137.264 212.665 137.264H347.727Z" fill="#6C63FF"/>
<path d="M374.845 129.288H353.576C351.23 129.288 349.322 127.38 349.322 125.034C349.322 122.688 351.23 120.78 353.576 120.78H374.845C377.191 120.78 379.099 122.688 379.099 125.034C379.099 127.38 377.191 129.288 374.845 129.288Z" fill="#E6E6E6"/>
<path d="M235.53 106.955H214.26C211.915 106.955 210.006 105.047 210.006 102.701C210.006 100.355 211.915 98.4471 214.26 98.4471H235.53C237.876 98.4471 239.784 100.355 239.784 102.701C239.784 105.047 237.876 106.955 235.53 106.955Z" fill="#E6E6E6"/>
<path d="M212.665 185.652C211.786 185.652 211.07 186.368 211.07 187.248C211.07 187.676 211.236 188.073 211.536 188.366C211.84 188.677 212.237 188.843 212.665 188.843H377.504C378.384 188.843 379.099 188.127 379.099 187.248C379.099 186.819 378.934 186.422 378.633 186.129C378.33 185.819 377.933 185.652 377.504 185.652H212.665Z" fill="#E6E6E6"/>
<path d="M265.839 185.121V189.374H212.665C212.08 189.374 211.549 189.14 211.166 188.747C210.772 188.364 210.538 187.832 210.538 187.247C210.538 186.078 211.495 185.121 212.665 185.121H265.839Z" fill="#6C63FF"/>
<path d="M374.845 177.144H353.576C351.23 177.144 349.322 175.237 349.322 172.891C349.322 170.544 351.23 168.637 353.576 168.637H374.845C377.191 168.637 379.099 170.544 379.099 172.891C379.099 175.237 377.191 177.144 374.845 177.144Z" fill="#E6E6E6"/>
</g>
<defs>
<clipPath id="clip0_47_30">
<rect width="665" height="408.204" fill="white"/>
</clipPath>
</defs>
</svg>
