<svg width="1512" height="1016" viewBox="0 0 1512 1016" fill="none" xmlns="http://www.w3.org/2000/svg">
<path d="M1512 0H0V1014H1512V0Z" fill="black"/>
<path d="M0 106L126 130.74C252 155.48 504 204.96 756 220.019C1008 235.078 1260 215.716 1386 206.035L1512 196.355V1016H1386C1260 1016 1008 1016 756 1016C504 1016 252 1016 126 1016H0V106Z" fill="#315EFF"/>
<path d="M0 255.378L126 254.063C252 252.937 504 250.308 756 254.439C1008 258.57 1260 269.086 1386 274.531L1512 279.789V1015.88H1386C1260 1015.88 1008 1015.88 756 1015.88C504 1015.88 252 1015.88 126 1015.88H0V255.378Z" fill="#3A4DC1"/>
<path d="M0 446.911L126 451.606C252 456.3 504 465.689 756 472.261C1008 478.833 1260 482.589 1386 484.467L1512 486.344V1015.88H1386C1260 1015.88 1008 1015.88 756 1015.88C504 1015.88 252 1015.88 126 1015.88H0V446.911Z" fill="#383D86"/>
<path d="M0 437.522L126 435.081C252 432.452 504 427.57 756 424.378C1008 421.186 1260 420.059 1386 419.308L1512 418.744V1015.88H1386C1260 1015.88 1008 1015.88 756 1015.88C504 1015.88 252 1015.88 126 1015.88H0V437.522Z" fill="#2E2D4F"/>
<path d="M0 591.5L126 593.753C252 595.819 504 600.326 756 581.548C1008 562.77 1260 520.708 1386 499.865L1512 478.833V1015.88H1386C1260 1015.88 1008 1015.88 756 1015.88C504 1015.88 252 1015.88 126 1015.88H0V591.5Z" fill="#1E1E1E"/>
<path d="M0 638.444L126 626.802C252 615.348 504 592.063 756 593.941C1008 595.819 1260 622.859 1386 636.191L1512 649.711V1015.88H1386C1260 1015.88 1008 1015.88 756 1015.88C504 1015.88 252 1015.88 126 1015.88H0V638.444Z" fill="#1E1E1E"/>
<path d="M0 614.033L126 628.68C252 643.514 504 672.808 756 689.52C1008 706.044 1260 709.8 1386 711.678L1512 713.556V1015.88H1386C1260 1015.88 1008 1015.88 756 1015.88C504 1015.88 252 1015.88 126 1015.88H0V614.033Z" fill="#1E1E1E"/>
<path d="M0 692.9L126 700.974C252 709.237 504 725.386 756 730.831C1008 736.089 1260 730.456 1386 727.639L1512 724.822V1015.88H1386C1260 1015.88 1008 1015.88 756 1015.88C504 1015.88 252 1015.88 126 1015.88H0V692.9Z" fill="#2E2D4F"/>
<path d="M0 784.911L126 789.042C252 792.986 504 801.248 756 795.802C1008 790.544 1260 771.767 1386 762.378L1512 752.989V1015.88H1386C1260 1015.88 1008 1015.88 756 1015.88C504 1015.88 252 1015.88 126 1015.88H0V784.911Z" fill="#383D86"/>
<path d="M0 854.389L126 852.887C252 851.197 504 848.192 756 843.122C1008 838.052 1260 831.292 1386 827.724L1512 824.344V1015.88H1386C1260 1015.88 1008 1015.88 756 1015.88C504 1015.88 252 1015.88 126 1015.88H0V854.389Z" fill="#3A4DC1"/>
<path d="M0 914.478L126 920.111C252 925.744 504 937.011 756 934.758C1008 932.692 1260 916.919 1386 909.22L1512 901.333V1015.88H1386C1260 1015.88 1008 1015.88 756 1015.88C504 1015.88 252 1015.88 126 1015.88H0V914.478Z" fill="#315EFF"/>
</svg>
