<svg width="1512" height="807" viewBox="0 0 1512 807" fill="none" xmlns="http://www.w3.org/2000/svg">
<path d="M1512 0H0V805.657H1512V0Z" fill="#1E1E1E"/>
<path d="M0 147.704L302.4 75.1948L604.8 128.905L907.2 120.849L1209.6 85.9369L1512 178.587V807H1209.6H907.2H604.8H302.4H0V147.704Z" fill="#315EFF"/>
<path d="M0 253.782L302.4 154.417L604.8 175.902L907.2 209.471L1209.6 253.782L1512 255.125V807H1209.6H907.2H604.8H302.4H0V253.782Z" fill="#3458EC"/>
<path d="M0 186.644L302.4 222.899L604.8 283.323L907.2 273.924L1209.6 187.987L1512 205.443V807H1209.6H907.2H604.8H302.4H0V186.644Z" fill="#3552DA"/>
<path d="M0 281.98L302.4 236.326L604.8 230.955L907.2 334.348L1209.6 256.468L1512 240.354V807H1209.6H907.2H604.8H302.4H0V281.98Z" fill="#364DC8"/>
<path d="M0 331.662L302.4 359.86L604.8 328.977L907.2 384.03L1209.6 397.458L1512 319.577V807H1209.6H907.2H604.8H302.4H0V331.662Z" fill="#3647B6"/>
<path d="M0 353.146L302.4 405.514L604.8 463.253L907.2 405.514L1209.6 416.256L1512 386.716V807H1209.6H907.2H604.8H302.4H0V353.146Z" fill="#3542A5"/>
<path d="M0 418.942L302.4 515.621L604.8 475.338L907.2 488.765L1209.6 422.97L1512 456.539V807H1209.6H907.2H604.8H302.4H0V418.942Z" fill="#333C94"/>
<path d="M0 525.02L302.4 508.907L604.8 546.504L907.2 494.136L1209.6 563.96L1512 519.649V807H1209.6H907.2H604.8H302.4H0V525.02Z" fill="#313783"/>
<path d="M0 529.048L302.4 586.787L604.8 529.048L907.2 530.391L1209.6 535.762L1512 546.504V807H1209.6H907.2H604.8H302.4H0V529.048Z" fill="#2E3273"/>
<path d="M0 633.784L302.4 652.582L604.8 596.186L907.2 632.441L1209.6 641.84L1512 594.844V807H1209.6H907.2H604.8H302.4H0V633.784Z" fill="#2B2D63"/>
<path d="M0 684.808L302.4 672.724L604.8 690.179L907.2 667.353L1209.6 704.95L1512 668.695V807H1209.6H907.2H604.8H302.4H0V684.808Z" fill="#282853"/>
<path d="M0 769.403L302.4 768.06L604.8 729.12L907.2 734.491L1209.6 737.176L1512 715.692V807H1209.6H907.2H604.8H302.4H0V769.403Z" fill="#242344"/>
</svg>
