<svg width="21" height="23" viewBox="0 0 21 23" fill="none" xmlns="http://www.w3.org/2000/svg">
<path d="M18.3619 7.5456L8.57709 0.914947C7.81286 0.398121 6.90856 0.0868677 5.96448 0.0157008C5.0204 -0.055466 4.07342 0.116234 3.22855 0.511763C2.38368 0.907291 1.67393 1.51119 1.178 2.2565C0.682069 3.00182 0.419341 3.85941 0.418945 4.7342V17.9955C0.419114 18.8707 0.681857 19.7287 1.17801 20.4744C1.67417 21.22 2.38434 21.8241 3.2297 22.2196C4.07506 22.6151 5.02255 22.7866 5.96702 22.715C6.91149 22.6433 7.816 22.3314 8.58017 21.8138L18.365 15.1832C19.0145 14.7433 19.5427 14.1683 19.9068 13.5047C20.2709 12.8412 20.4606 12.1078 20.4606 11.3639C20.4606 10.62 20.2709 9.88664 19.9068 9.2231C19.5427 8.55956 19.0145 7.98455 18.365 7.54465L18.3619 7.5456ZM17.1476 13.6553L7.3627 20.2859C6.90425 20.5953 6.36203 20.7815 5.79607 20.8239C5.23011 20.8663 4.66249 20.7633 4.15603 20.5262C3.64957 20.2891 3.22402 19.9272 2.9265 19.4805C2.62897 19.0339 2.47107 18.5199 2.47028 17.9955V4.7342C2.46459 4.20882 2.61951 3.69261 2.91724 3.24489C3.21497 2.79717 3.64343 2.4361 4.15339 2.20319C4.58714 1.99943 5.06679 1.89299 5.55343 1.89249C6.20564 1.8948 6.83984 2.09036 7.3627 2.45042L17.1476 9.08107C17.5368 9.34506 17.8533 9.68996 18.0714 10.0879C18.2896 10.4858 18.4032 10.9255 18.4032 11.3715C18.4032 11.8175 18.2896 12.2572 18.0714 12.6551C17.8533 13.053 17.5368 13.3979 17.1476 13.6619V13.6553Z" fill="white"/>
</svg>
