<svg width="48" height="48" viewBox="0 0 48 48" fill="none" xmlns="http://www.w3.org/2000/svg">
<rect width="48" height="48" rx="4" fill="white"/>
<path d="M18.4 10.6665H29.6C33.8667 10.6665 37.3333 14.1332 37.3333 18.3998V29.5998C37.3333 31.6508 36.5186 33.6178 35.0683 35.0681C33.618 36.5184 31.651 37.3332 29.6 37.3332H18.4C14.1333 37.3332 10.6667 33.8665 10.6667 29.5998V18.3998C10.6667 16.3488 11.4814 14.3818 12.9317 12.9315C14.382 11.4813 16.349 10.6665 18.4 10.6665ZM18.1333 13.3332C16.8603 13.3332 15.6394 13.8389 14.7392 14.7391C13.8391 15.6392 13.3333 16.8601 13.3333 18.1332V29.8665C13.3333 32.5198 15.48 34.6665 18.1333 34.6665H29.8667C31.1397 34.6665 32.3606 34.1608 33.2608 33.2606C34.161 32.3604 34.6667 31.1395 34.6667 29.8665V18.1332C34.6667 15.4798 32.52 13.3332 29.8667 13.3332H18.1333ZM31 15.3332C31.442 15.3332 31.866 15.5088 32.1785 15.8213C32.4911 16.1339 32.6667 16.5578 32.6667 16.9998C32.6667 17.4419 32.4911 17.8658 32.1785 18.1783C31.866 18.4909 31.442 18.6665 31 18.6665C30.558 18.6665 30.1341 18.4909 29.8215 18.1783C29.5089 17.8658 29.3333 17.4419 29.3333 16.9998C29.3333 16.5578 29.5089 16.1339 29.8215 15.8213C30.1341 15.5088 30.558 15.3332 31 15.3332ZM24 17.3332C25.7681 17.3332 27.4638 18.0355 28.7141 19.2858C29.9643 20.536 30.6667 22.2317 30.6667 23.9998C30.6667 25.7679 29.9643 27.4636 28.7141 28.7139C27.4638 29.9641 25.7681 30.6665 24 30.6665C22.2319 30.6665 20.5362 29.9641 19.286 28.7139C18.0357 27.4636 17.3333 25.7679 17.3333 23.9998C17.3333 22.2317 18.0357 20.536 19.286 19.2858C20.5362 18.0355 22.2319 17.3332 24 17.3332ZM24 19.9998C22.9391 19.9998 21.9217 20.4213 21.1716 21.1714C20.4214 21.9216 20 22.939 20 23.9998C20 25.0607 20.4214 26.0781 21.1716 26.8283C21.9217 27.5784 22.9391 27.9998 24 27.9998C25.0609 27.9998 26.0783 27.5784 26.8284 26.8283C27.5786 26.0781 28 25.0607 28 23.9998C28 22.939 27.5786 21.9216 26.8284 21.1714C26.0783 20.4213 25.0609 19.9998 24 19.9998Z" fill="#315EFF"/>
</svg>
