<svg width="48" height="48" viewBox="0 0 48 48" fill="none" xmlns="http://www.w3.org/2000/svg">
<rect width="48" height="48" rx="4" fill="white"/>
<path d="M13.4 36C13 36 12.6667 35.8667 12.4 35.6C12.1333 35.3333 12 35 12 34.6V29.2C12 28.8889 12.1 28.6164 12.3 28.3827C12.5 28.1489 12.7556 27.9991 13.0667 27.9333L17.6667 27C17.9778 26.9556 18.2947 26.9836 18.6173 27.084C18.94 27.1844 19.2009 27.3342 19.4 27.5333L22.5333 30.6667C24.2222 29.6444 25.7667 28.4333 27.1667 27.0333C28.5667 25.6333 29.7333 24.1333 30.6667 22.5333L27.4667 19.2667C27.2667 19.0667 27.1387 18.8387 27.0827 18.5827C27.0267 18.3267 27.0213 18.0436 27.0667 17.7333L27.9333 13.0667C27.9778 12.7556 28.1222 12.5 28.3667 12.3C28.6111 12.1 28.8889 12 29.2 12H34.6C35 12 35.3333 12.1333 35.6 12.4C35.8667 12.6667 36 13 36 13.4C36 16.2667 35.3609 19.0613 34.0827 21.784C32.8044 24.5067 31.1156 26.9178 29.016 29.0173C26.9164 31.1169 24.5053 32.8058 21.7827 34.084C19.06 35.3622 16.2658 36.0009 13.4 36Z" fill="#315EFF"/>
</svg>
