<svg width="21" height="20" viewBox="0 0 21 20" fill="none" xmlns="http://www.w3.org/2000/svg">
<g clip-path="url(#clip0_6_195)">
<path d="M16.7014 0H3.34028C2.45438 0 1.60477 0.35119 0.978344 0.976311C0.351921 1.60143 0 2.44928 0 3.33333L0 13.3333C0 14.2174 0.351921 15.0652 0.978344 15.6904C1.60477 16.3155 2.45438 16.6667 3.34028 16.6667H5.76198L9.47887 19.8025C9.62965 19.9298 9.82079 19.9997 10.0183 19.9997C10.2159 19.9997 10.407 19.9298 10.5578 19.8025L14.2797 16.6667H16.7014C17.5873 16.6667 18.4369 16.3155 19.0633 15.6904C19.6897 15.0652 20.0417 14.2174 20.0417 13.3333V3.33333C20.0417 2.44928 19.6897 1.60143 19.0633 0.976311C18.4369 0.35119 17.5873 0 16.7014 0ZM18.3715 13.3333C18.3715 13.7754 18.1956 14.1993 17.8823 14.5118C17.5691 14.8244 17.1443 15 16.7014 15H14.2797C13.8849 15.0001 13.503 15.1398 13.2016 15.3942L10.0208 18.075L6.84172 15.3942C6.5399 15.1394 6.1573 14.9997 5.76198 15H3.34028C2.89733 15 2.47252 14.8244 2.15931 14.5118C1.8461 14.1993 1.67014 13.7754 1.67014 13.3333V3.33333C1.67014 2.89131 1.8461 2.46738 2.15931 2.15482C2.47252 1.84226 2.89733 1.66667 3.34028 1.66667H16.7014C17.1443 1.66667 17.5691 1.84226 17.8823 2.15482C18.1956 2.46738 18.3715 2.89131 18.3715 3.33333V13.3333Z" fill="white"/>
<path d="M5.84551 5.83341H10.0209C10.2423 5.83341 10.4547 5.74562 10.6113 5.58934C10.7679 5.43306 10.8559 5.2211 10.8559 5.00008C10.8559 4.77907 10.7679 4.56711 10.6113 4.41083C10.4547 4.25455 10.2423 4.16675 10.0209 4.16675H5.84551C5.62403 4.16675 5.41163 4.25455 5.25502 4.41083C5.09842 4.56711 5.01044 4.77907 5.01044 5.00008C5.01044 5.2211 5.09842 5.43306 5.25502 5.58934C5.41163 5.74562 5.62403 5.83341 5.84551 5.83341Z" fill="white"/>
<path d="M14.1962 7.5H5.84551C5.62403 7.5 5.41163 7.5878 5.25502 7.74408C5.09842 7.90036 5.01044 8.11232 5.01044 8.33333C5.01044 8.55435 5.09842 8.76631 5.25502 8.92259C5.41163 9.07887 5.62403 9.16667 5.84551 9.16667H14.1962C14.4177 9.16667 14.6301 9.07887 14.7867 8.92259C14.9433 8.76631 15.0313 8.55435 15.0313 8.33333C15.0313 8.11232 14.9433 7.90036 14.7867 7.74408C14.6301 7.5878 14.4177 7.5 14.1962 7.5Z" fill="white"/>
<path d="M14.1962 10.8333H5.84551C5.62403 10.8333 5.41163 10.921 5.25502 11.0773C5.09842 11.2336 5.01044 11.4456 5.01044 11.6666C5.01044 11.8876 5.09842 12.0996 5.25502 12.2558C5.41163 12.4121 5.62403 12.4999 5.84551 12.4999H14.1962C14.4177 12.4999 14.6301 12.4121 14.7867 12.2558C14.9433 12.0996 15.0313 11.8876 15.0313 11.6666C15.0313 11.4456 14.9433 11.2336 14.7867 11.0773C14.6301 10.921 14.4177 10.8333 14.1962 10.8333Z" fill="white"/>
</g>
<defs>
<clipPath id="clip0_6_195">
<rect width="20.0417" height="20" fill="white"/>
</clipPath>
</defs>
</svg>
