<svg width="1512" height="1062" viewBox="0 0 1512 1062" fill="none" xmlns="http://www.w3.org/2000/svg">
<path d="M1512 0H0V1060H1512V0Z" fill="#315EFF"/>
<path d="M0 261.074L126 288.163C252 315.448 504 369.626 756 374.337C1008 378.852 1260 333.704 1386 311.13L1512 288.556V1061.96H1386C1260 1061.96 1008 1061.96 756 1061.96C504 1061.96 252 1061.96 126 1061.96H0V261.074Z" fill="#2E2D4F"/>
<path d="M0 106L126 128.967C252 151.737 504 197.67 756 210.626C1008 223.778 1260 204.148 1386 194.333L1512 184.519V1061.96H1386C1260 1061.96 1008 1061.96 756 1061.96C504 1061.96 252 1061.96 126 1061.96H0V106Z" fill="#242344"/>
<path d="M0 498.593L126 510.763C252 522.737 504 547.078 756 563.959C1008 581.037 1260 590.852 1386 595.759L1512 600.667V1061.96H1386C1260 1061.96 1008 1061.96 756 1061.96C504 1061.96 252 1061.96 126 1061.96H0V498.593Z" fill="#191A3A"/>
<path d="M0 404.37L126 402.015C252 399.856 504 395.144 756 405.352C1008 415.559 1260 440.293 1386 452.856L1512 465.222V1061.96H1386C1260 1061.96 1008 1061.96 756 1061.96C504 1061.96 252 1061.96 126 1061.96H0V404.37Z" fill="#0F1130"/>
<path d="M0 728.259L126 705.293C252 682.522 504 636.589 756 644.244C1008 651.704 1260 712.555 1386 742.981L1512 773.407V1061.96H1386C1260 1061.96 1008 1061.96 756 1061.96C504 1061.96 252 1061.96 126 1061.96H0V728.259Z" fill="#060126"/>
<path d="M0 681.148L126 675.652C252 669.959 504 658.967 756 669.959C1008 681.148 1260 714.519 1386 731.204L1512 747.889V1061.96H1386C1260 1061.96 1008 1061.96 756 1061.96C504 1061.96 252 1061.96 126 1061.96H0V681.148Z" fill="black"/>
<path d="M0 634.037L126 636.982C252 639.926 504 645.815 756 678.793C1008 711.967 1260 772.033 1386 802.263L1512 832.296V1061.96H1386C1260 1061.96 1008 1061.96 756 1061.96C504 1061.96 252 1061.96 126 1061.96H0V634.037Z" fill="black"/>
<path d="M0 608.519L126 628.541C252 648.367 504 688.411 756 683.504C1008 678.596 1260 628.737 1386 604.004L1512 579.074V1061.96H1386C1260 1061.96 1008 1061.96 756 1061.96C504 1061.96 252 1061.96 126 1061.96H0V608.519Z" fill="#060126"/>
<path d="M0 710.593L126 720.407C252 730.222 504 749.852 756 769.089C1008 788.522 1260 807.367 1386 816.985L1512 826.407V1061.96H1386C1260 1061.96 1008 1061.96 756 1061.96C504 1061.96 252 1061.96 126 1061.96H0V710.593Z" fill="#0F1130"/>
<path d="M0 908.852L126 887.848C252 867.041 504 825.033 756 822.482C1008 819.93 1260 856.441 1386 874.893L1512 893.148V1061.96H1386C1260 1061.96 1008 1061.96 756 1061.96C504 1061.96 252 1061.96 126 1061.96H0V908.852Z" fill="#191A3A"/>
<path d="M0 867.63L126 887.652C252 907.478 504 947.522 756 961.263C1008 975.004 1260 962.441 1386 956.356L1512 950.074V1061.96H1386C1260 1061.96 1008 1061.96 756 1061.96C504 1061.96 252 1061.96 126 1061.96H0V867.63Z" fill="#242344"/>
<path d="M0 969.704L126 968.133C252 966.367 504 963.226 756 954.589C1008 946.148 1260 932.407 1386 925.537L1512 918.667V1061.96H1386C1260 1061.96 1008 1061.96 756 1061.96C504 1061.96 252 1061.96 126 1061.96H0V969.704Z" fill="#2E2D4F"/>
</svg>
