<svg width="1512" height="853" viewBox="0 0 1512 853" fill="none" xmlns="http://www.w3.org/2000/svg">
<path d="M1512 0H0V850.5H1512V0Z" fill="#2E2D4F"/>
<path d="M0 81.9001L22.8375 90.2475C45.675 98.7525 91.35 115.448 137.34 106.313C183.173 97.1775 229.478 61.8976 275.31 53.5501C321.3 45.2026 366.975 63.4725 412.65 71.3475C458.325 79.2225 504 76.7025 549.675 65.0475C595.35 53.55 641.025 33.0751 687.015 38.1151C732.848 42.9976 779.153 73.5525 824.985 96.075C870.975 118.598 916.65 133.403 962.325 135.45C1008 137.498 1053.68 127.103 1099.35 134.978C1145.03 142.853 1190.7 168.998 1236.69 177.188C1282.52 185.378 1328.83 175.298 1374.66 152.46C1420.65 129.623 1466.33 94.0275 1489.16 76.0725L1512 58.2751V852.075H1489.16C1466.33 852.075 1420.65 852.075 1374.66 852.075C1328.83 852.075 1282.52 852.075 1236.69 852.075C1190.7 852.075 1145.03 852.075 1099.35 852.075C1053.68 852.075 1008 852.075 962.325 852.075C916.65 852.075 870.975 852.075 824.985 852.075C779.153 852.075 732.848 852.075 687.015 852.075C641.025 852.075 595.35 852.075 549.675 852.075C504 852.075 458.325 852.075 412.65 852.075C366.975 852.075 321.3 852.075 275.31 852.075C229.478 852.075 183.173 852.075 137.34 852.075C91.35 852.075 45.675 852.075 22.8375 852.075H0V81.9001Z" fill="#3A4DC1"/>
<path d="M0 149.625L22.8375 160.335C45.675 171.203 91.35 192.623 137.34 183.015C183.173 173.25 229.478 132.3 275.31 109.935C321.3 87.7276 366.975 83.9476 412.65 102.06C458.325 120.173 504 160.178 549.675 187.898C595.35 215.775 641.025 231.525 687.015 210.263C732.848 189 779.153 130.725 824.985 128.678C870.975 126.473 916.65 180.653 962.325 210.735C1008 240.975 1053.68 247.275 1099.35 219.24C1145.03 191.048 1190.7 128.678 1236.69 126C1282.52 123.323 1328.83 180.653 1374.66 182.385C1420.65 184.275 1466.33 130.725 1489.16 103.95L1512 77.175V852.075H1489.16C1466.33 852.075 1420.65 852.075 1374.66 852.075C1328.83 852.075 1282.52 852.075 1236.69 852.075C1190.7 852.075 1145.03 852.075 1099.35 852.075C1053.68 852.075 1008 852.075 962.325 852.075C916.65 852.075 870.975 852.075 824.985 852.075C779.153 852.075 732.848 852.075 687.015 852.075C641.025 852.075 595.35 852.075 549.675 852.075C504 852.075 458.325 852.075 412.65 852.075C366.975 852.075 321.3 852.075 275.31 852.075C229.478 852.075 183.173 852.075 137.34 852.075C91.35 852.075 45.675 852.075 22.8375 852.075H0V149.625Z" fill="#3A49B1"/>
<path d="M0 247.275L22.8375 259.087C45.675 270.9 91.35 294.525 137.34 287.752C183.173 280.822 229.478 243.652 275.31 213.412C321.3 183.172 366.975 160.177 412.65 159.075C458.325 157.972 504 179.077 549.675 195.615C595.35 212.152 641.025 224.122 687.015 226.327C732.848 228.375 779.153 220.5 824.985 232.312C870.975 244.125 916.65 275.625 962.325 291.69C1008 307.597 1053.68 308.227 1099.35 305.235C1145.03 302.4 1190.7 296.1 1236.69 284.76C1282.52 273.577 1328.83 257.197 1374.66 240.187C1420.65 223.177 1466.33 205.222 1489.16 196.402L1512 187.425V852.075H1489.16C1466.33 852.075 1420.65 852.075 1374.66 852.075C1328.83 852.075 1282.52 852.075 1236.69 852.075C1190.7 852.075 1145.03 852.075 1099.35 852.075C1053.68 852.075 1008 852.075 962.325 852.075C916.65 852.075 870.975 852.075 824.985 852.075C779.153 852.075 732.848 852.075 687.015 852.075C641.025 852.075 595.35 852.075 549.675 852.075C504 852.075 458.325 852.075 412.65 852.075C366.975 852.075 321.3 852.075 275.31 852.075C229.478 852.075 183.173 852.075 137.34 852.075C91.35 852.075 45.675 852.075 22.8375 852.075H0V247.275Z" fill="#3A44A0"/>
<path d="M0 258.3L22.8375 259.56C45.675 260.978 91.35 263.498 137.34 278.775C183.173 294.053 229.478 321.773 275.31 323.978C321.3 326.025 366.975 302.4 412.65 303.975C458.325 305.55 504 332.325 549.675 340.673C595.35 349.178 641.025 339.098 687.015 333.585C732.848 328.073 779.153 327.128 824.985 333.428C870.975 339.728 916.65 353.273 962.325 347.603C1008 341.775 1053.68 316.575 1099.35 302.715C1145.03 288.698 1190.7 286.178 1236.69 297.675C1282.52 309.173 1328.83 335.003 1374.66 344.138C1420.65 353.273 1466.33 346.028 1489.16 342.248L1512 338.625V852.075H1489.16C1466.33 852.075 1420.65 852.075 1374.66 852.075C1328.83 852.075 1282.52 852.075 1236.69 852.075C1190.7 852.075 1145.03 852.075 1099.35 852.075C1053.68 852.075 1008 852.075 962.325 852.075C916.65 852.075 870.975 852.075 824.985 852.075C779.153 852.075 732.848 852.075 687.015 852.075C641.025 852.075 595.35 852.075 549.675 852.075C504 852.075 458.325 852.075 412.65 852.075C366.975 852.075 321.3 852.075 275.31 852.075C229.478 852.075 183.173 852.075 137.34 852.075C91.35 852.075 45.675 852.075 22.8375 852.075H0V258.3Z" fill="#394090"/>
<path d="M0 403.2L22.8375 400.365C45.675 397.372 91.35 391.703 137.34 396.585C183.173 401.625 229.478 417.375 275.31 402.412C321.3 387.45 366.975 341.775 412.65 331.223C458.325 320.828 504 345.398 549.675 343.035C595.35 340.673 641.025 311.377 687.015 307.125C732.848 302.872 779.153 323.977 824.985 322.402C870.975 320.827 916.65 296.572 962.325 310.59C1008 324.45 1053.68 376.425 1099.35 388.71C1145.03 401.153 1190.7 373.748 1236.69 374.535C1282.52 375.323 1328.83 404.302 1374.66 401.625C1420.65 398.948 1466.33 364.928 1489.16 347.76L1512 330.75V852.075H1489.16C1466.33 852.075 1420.65 852.075 1374.66 852.075C1328.83 852.075 1282.52 852.075 1236.69 852.075C1190.7 852.075 1145.03 852.075 1099.35 852.075C1053.68 852.075 1008 852.075 962.325 852.075C916.65 852.075 870.975 852.075 824.985 852.075C779.153 852.075 732.848 852.075 687.015 852.075C641.025 852.075 595.35 852.075 549.675 852.075C504 852.075 458.325 852.075 412.65 852.075C366.975 852.075 321.3 852.075 275.31 852.075C229.478 852.075 183.173 852.075 137.34 852.075C91.35 852.075 45.675 852.075 22.8375 852.075H0V403.2Z" fill="#373B81"/>
<path d="M0 467.775L22.8375 469.35C45.675 470.925 91.35 474.075 137.34 471.24C183.173 468.248 229.478 459.428 275.31 451.553C321.3 443.678 366.975 436.748 412.65 420.998C458.325 405.248 504 380.678 549.675 390.6C595.35 400.523 641.025 445.253 687.015 442.89C732.848 440.528 779.153 391.073 824.985 388.238C870.975 385.403 916.65 428.873 962.325 432.653C1008 436.275 1053.68 400.05 1099.35 389.025C1145.03 378 1190.7 392.175 1236.69 389.34C1282.52 386.348 1328.83 366.503 1374.66 364.928C1420.65 363.353 1466.33 380.048 1489.16 388.553L1512 396.9V852.075H1489.16C1466.33 852.075 1420.65 852.075 1374.66 852.075C1328.83 852.075 1282.52 852.075 1236.69 852.075C1190.7 852.075 1145.03 852.075 1099.35 852.075C1053.68 852.075 1008 852.075 962.325 852.075C916.65 852.075 870.975 852.075 824.985 852.075C779.153 852.075 732.848 852.075 687.015 852.075C641.025 852.075 595.35 852.075 549.675 852.075C504 852.075 458.325 852.075 412.65 852.075C366.975 852.075 321.3 852.075 275.31 852.075C229.478 852.075 183.173 852.075 137.34 852.075C91.35 852.075 45.675 852.075 22.8375 852.075H0V467.775Z" fill="#353772"/>
<path d="M0 537.075L22.8375 527.31C45.675 517.702 91.35 498.173 137.34 479.903C183.173 461.475 229.478 444.15 275.31 434.7C321.3 425.25 366.975 423.675 412.65 421.312C458.325 418.95 504 415.8 549.675 432.338C595.35 448.875 641.025 485.1 687.015 489.037C732.848 492.975 779.153 464.625 824.985 465.885C870.975 467.302 916.65 498.172 962.325 509.985C1008 521.797 1053.68 514.553 1099.35 507.938C1145.03 501.323 1190.7 495.653 1236.69 491.4C1282.52 487.147 1328.83 484.628 1374.66 472.5C1420.65 460.373 1466.33 438.952 1489.16 428.085L1512 417.375V852.075H1489.16C1466.33 852.075 1420.65 852.075 1374.66 852.075C1328.83 852.075 1282.52 852.075 1236.69 852.075C1190.7 852.075 1145.03 852.075 1099.35 852.075C1053.68 852.075 1008 852.075 962.325 852.075C916.65 852.075 870.975 852.075 824.985 852.075C779.153 852.075 732.848 852.075 687.015 852.075C641.025 852.075 595.35 852.075 549.675 852.075C504 852.075 458.325 852.075 412.65 852.075C366.975 852.075 321.3 852.075 275.31 852.075C229.478 852.075 183.173 852.075 137.34 852.075C91.35 852.075 45.675 852.075 22.8375 852.075H0V537.075Z" fill="#333363"/>
<path d="M0 488.25L22.8375 498.803C45.675 509.198 91.35 530.303 137.34 525.735C183.173 521.325 229.478 491.4 275.31 497.385C321.3 503.528 366.975 545.423 412.65 563.85C458.325 582.278 504 576.923 549.675 560.7C595.35 544.478 641.025 517.073 687.015 499.748C732.848 482.423 779.153 475.178 824.985 486.203C870.975 497.228 916.65 526.523 962.325 532.35C1008 538.178 1053.68 520.223 1099.35 524.003C1145.03 527.625 1190.7 552.825 1236.69 554.085C1282.52 555.503 1328.83 532.823 1374.66 528.885C1420.65 524.948 1466.33 539.753 1489.16 546.998L1512 554.4V852.075H1489.16C1466.33 852.075 1420.65 852.075 1374.66 852.075C1328.83 852.075 1282.52 852.075 1236.69 852.075C1190.7 852.075 1145.03 852.075 1099.35 852.075C1053.68 852.075 1008 852.075 962.325 852.075C916.65 852.075 870.975 852.075 824.985 852.075C779.153 852.075 732.848 852.075 687.015 852.075C641.025 852.075 595.35 852.075 549.675 852.075C504 852.075 458.325 852.075 412.65 852.075C366.975 852.075 321.3 852.075 275.31 852.075C229.478 852.075 183.173 852.075 137.34 852.075C91.35 852.075 45.675 852.075 22.8375 852.075H0V488.25Z" fill="#2F2F54"/>
<path d="M0 606.375L22.8375 611.572C45.675 616.927 91.35 627.322 137.34 635.197C183.173 643.072 229.478 648.427 275.31 643.387C321.3 638.347 366.975 623.227 412.65 619.447C458.325 615.825 504 623.7 549.675 630.315C595.35 636.772 641.025 642.127 687.015 636.772C732.848 631.575 779.153 615.825 824.985 604.327C870.975 592.672 916.65 585.427 962.325 596.452C1008 607.477 1053.68 636.772 1099.35 646.852C1145.03 656.775 1190.7 647.325 1236.69 627.165C1282.52 606.847 1328.83 575.977 1374.66 561.015C1420.65 546.052 1466.33 546.997 1489.16 547.627L1512 548.1V852.075H1489.16C1466.33 852.075 1420.65 852.075 1374.66 852.075C1328.83 852.075 1282.52 852.075 1236.69 852.075C1190.7 852.075 1145.03 852.075 1099.35 852.075C1053.68 852.075 1008 852.075 962.325 852.075C916.65 852.075 870.975 852.075 824.985 852.075C779.153 852.075 732.848 852.075 687.015 852.075C641.025 852.075 595.35 852.075 549.675 852.075C504 852.075 458.325 852.075 412.65 852.075C366.975 852.075 321.3 852.075 275.31 852.075C229.478 852.075 183.173 852.075 137.34 852.075C91.35 852.075 45.675 852.075 22.8375 852.075H0V606.375Z" fill="#2C2A46"/>
<path d="M0 617.4H22.8375C45.675 617.4 91.35 617.4 137.34 621.81C183.173 626.378 229.478 635.198 275.31 632.835C321.3 630.473 366.975 616.928 412.65 624.488C458.325 632.048 504 661.028 549.675 680.4C595.35 699.773 641.025 709.853 687.015 703.71C732.848 697.725 779.153 675.675 824.985 656.303C870.975 636.773 916.65 620.078 962.325 617.715C1008 615.353 1053.68 627.323 1099.35 626.063C1145.03 624.803 1190.7 609.998 1236.69 606.06C1282.52 602.123 1328.83 609.053 1374.66 631.103C1420.65 653.153 1466.33 690.323 1489.16 709.065L1512 727.65V852.075H1489.16C1466.33 852.075 1420.65 852.075 1374.66 852.075C1328.83 852.075 1282.52 852.075 1236.69 852.075C1190.7 852.075 1145.03 852.075 1099.35 852.075C1053.68 852.075 1008 852.075 962.325 852.075C916.65 852.075 870.975 852.075 824.985 852.075C779.153 852.075 732.848 852.075 687.015 852.075C641.025 852.075 595.35 852.075 549.675 852.075C504 852.075 458.325 852.075 412.65 852.075C366.975 852.075 321.3 852.075 275.31 852.075C229.478 852.075 183.173 852.075 137.34 852.075C91.35 852.075 45.675 852.075 22.8375 852.075H0V617.4Z" fill="#282638"/>
<path d="M0 762.3L22.8375 749.7C45.675 737.1 91.35 711.9 137.34 700.403C183.173 688.748 229.478 690.952 275.31 698.985C321.3 707.175 366.975 721.35 412.65 724.185C458.325 727.177 504 718.673 549.675 718.2C595.35 717.728 641.025 724.972 687.015 731.272C732.848 737.572 779.153 742.927 824.985 743.872C870.975 744.975 916.65 741.825 962.325 728.438C1008 715.05 1053.68 691.425 1099.35 680.4C1145.03 669.375 1190.7 670.95 1236.69 678.037C1282.52 685.125 1328.83 697.725 1374.66 703.237C1420.65 708.75 1466.33 707.175 1489.16 706.387L1512 705.6V852.075H1489.16C1466.33 852.075 1420.65 852.075 1374.66 852.075C1328.83 852.075 1282.52 852.075 1236.69 852.075C1190.7 852.075 1145.03 852.075 1099.35 852.075C1053.68 852.075 1008 852.075 962.325 852.075C916.65 852.075 870.975 852.075 824.985 852.075C779.153 852.075 732.848 852.075 687.015 852.075C641.025 852.075 595.35 852.075 549.675 852.075C504 852.075 458.325 852.075 412.65 852.075C366.975 852.075 321.3 852.075 275.31 852.075C229.478 852.075 183.173 852.075 137.34 852.075C91.35 852.075 45.675 852.075 22.8375 852.075H0V762.3Z" fill="#23222B"/>
<path d="M0 770.175L22.8375 766.71C45.675 763.403 91.35 756.473 137.34 756.788C183.173 757.103 229.478 764.348 275.31 776.948C321.3 789.548 366.975 807.503 412.65 801.675C458.325 795.848 504 766.553 549.675 752.378C595.35 738.203 641.025 739.148 687.015 749.385C732.848 759.623 779.153 779.153 824.985 776.948C870.975 774.9 916.65 751.275 962.325 744.66C1008 738.203 1053.68 748.598 1099.35 763.088C1145.03 777.578 1190.7 795.848 1236.69 804.353C1282.52 812.7 1328.83 811.125 1374.66 798.998C1420.65 787.028 1466.33 764.348 1489.16 753.165L1512 741.825V852.075H1489.16C1466.33 852.075 1420.65 852.075 1374.66 852.075C1328.83 852.075 1282.52 852.075 1236.69 852.075C1190.7 852.075 1145.03 852.075 1099.35 852.075C1053.68 852.075 1008 852.075 962.325 852.075C916.65 852.075 870.975 852.075 824.985 852.075C779.153 852.075 732.848 852.075 687.015 852.075C641.025 852.075 595.35 852.075 549.675 852.075C504 852.075 458.325 852.075 412.65 852.075C366.975 852.075 321.3 852.075 275.31 852.075C229.478 852.075 183.173 852.075 137.34 852.075C91.35 852.075 45.675 852.075 22.8375 852.075H0V770.175Z" fill="#1E1E1E"/>
</svg>
