<svg width="25" height="25" viewBox="0 0 25 25" fill="none" xmlns="http://www.w3.org/2000/svg">
<path d="M1.9 21.0212C1.9 23.1161 3.48078 24.8336 5.43964 24.8336C7.39851 24.8336 8.97913 23.1161 8.97913 21.0212C8.97913 18.9264 7.39851 17.2088 5.43964 17.2088C3.48078 17.2088 1.9 18.9263 1.9 21.0212ZM2.99643 21.0212C2.99643 19.5556 4.09961 18.3763 5.43964 18.3763C6.77952 18.3763 7.88286 19.5556 7.88286 21.0212C7.88286 22.4868 6.77967 23.6661 5.43964 23.6661C4.09961 23.6661 2.99643 22.4868 2.99643 21.0212Z" fill="white" stroke="white" stroke-width="0.2"/>
<path d="M9.39111 3.50221C8.52562 3.6296 7.88309 4.43265 7.88309 5.36002V21.0215C7.88309 21.3366 8.1215 21.6052 8.43114 21.6052C8.7409 21.6052 8.97917 21.3364 8.97917 21.0215L8.97933 5.36002C8.97933 5.00186 9.22661 4.70479 9.54113 4.65858L9.54116 4.65857L20.3105 3.07345L20.3107 3.07342C20.4958 3.04577 20.6767 3.1036 20.8206 3.23912C20.9648 3.37487 21.0454 3.56427 21.0454 3.77491L21.0453 19.0843C21.0453 19.3994 21.2837 19.668 21.5935 19.668C21.9034 19.668 22.1417 19.3992 22.1417 19.0843V3.77491C22.1417 3.23589 21.926 2.7217 21.547 2.36457M9.39111 3.50221L9.40567 3.60114L9.39111 3.50221L9.39111 3.50221ZM9.39111 3.50221L20.16 1.91709L20.1602 1.91706C20.6621 1.8441 21.1678 2.00727 21.547 2.36457M21.547 2.36457C21.547 2.36456 21.5469 2.36456 21.5469 2.36456L21.4784 2.43728L21.547 2.36457Z" fill="white" stroke="white" stroke-width="0.2"/>
<path d="M8.35591 8.17465L8.35597 8.17464L21.5181 6.23769C21.5181 6.23768 21.5182 6.23768 21.5182 6.23767L21.5183 6.23766L21.5328 6.3366C21.777 6.30021 22.0042 6.48533 22.0375 6.7504L8.35591 8.17465ZM8.35591 8.17465C8.05047 8.2198 7.84855 8.5188 7.88791 8.83077C7.92417 9.11811 8.15453 9.33656 8.43053 9.33656C8.45526 9.33656 8.48056 9.33494 8.50668 9.33094C8.50679 9.33092 8.50691 9.3309 8.50702 9.33088L21.6686 7.39401L21.6687 7.394C21.9741 7.34885 22.176 7.0499 22.1367 6.73795L8.35591 8.17465Z" fill="white" stroke="white" stroke-width="0.2"/>
<path d="M21.0452 19.0842V19.0842C21.0452 20.5498 19.942 21.7291 18.6019 21.7291C17.2619 21.7291 16.1587 20.5498 16.1587 19.0842C16.1587 17.6186 17.2619 16.4393 18.6019 16.4393C19.942 16.4393 21.0453 17.6186 21.0452 19.0842ZM15.0623 19.0842C15.0623 21.1791 16.6431 22.8966 18.6019 22.8966C20.561 22.8966 22.1416 21.1791 22.1416 19.0842C22.1416 16.9893 20.5608 15.2718 18.6019 15.2718C16.6431 15.2718 15.0623 16.9893 15.0623 19.0842Z" fill="white" stroke="white" stroke-width="0.2"/>
</svg>
